# xmcd
#
# Track frame offsets:
#	150
#	17043
#	33829
#	47278
#	64653
#	77721
#	94705
#	112520
#	130062
#
# Disc length: 1989 seconds
# Revision: 0
# Processed by: cddbd v1.5.2PL0 Copyright (c) Steve Scherf et al.
# Submitted via: dBpowerAMP V12.0
#
DISCID=5a07c309
DTITLE=Big Mamma's Door - Hand Bagged
DYEAR=2011
DGENRE=Blues
TTITLE0=Handbagged
TTITLE1=A Little Mad About You
TTITLE2=Give It To Me
TTITLE3=You Make It Easy
TTITLE4=Another Night
TTITLE5=Letting You Go
TTITLE6=I Don't Even Care
TTITLE7=You're Gonna Be Sorry
TTITLE8=We Got A Good Thing Going
EXTD=
EXTT0=
EXTT1=
EXTT2=
EXTT3=
EXTT4=
EXTT5=
EXTT6=
EXTT7=
EXTT8=
PLAYORDER=
